<svg width="25" height="24" viewBox="0 0 25 24" fill="none" xmlns="http://www.w3.org/2000/svg">
<path d="M13.4823 2.76424C13.131 2.49099 12.9553 2.35436 12.7613 2.30184C12.5902 2.2555 12.4098 2.2555 12.2387 2.30184C12.0447 2.35436 11.869 2.49099 11.5177 2.76424L4.73539 8.03937C4.28202 8.39199 4.05534 8.5683 3.89203 8.7891C3.74737 8.98469 3.6396 9.20503 3.57403 9.4393C3.5 9.70376 3.5 9.99094 3.5 10.5653V17.8002C3.5 18.9203 3.5 19.4804 3.71799 19.9082C3.90973 20.2845 4.21569 20.5905 4.59202 20.7822C5.01984 21.0002 5.5799 21.0002 6.7 21.0002H8.7C8.98003 21.0002 9.12004 21.0002 9.227 20.9457C9.32108 20.8978 9.39757 20.8213 9.4455 20.7272C9.5 20.6203 9.5 20.4803 9.5 20.2002V13.6002C9.5 13.0402 9.5 12.7601 9.60899 12.5462C9.70487 12.3581 9.85785 12.2051 10.046 12.1092C10.2599 12.0002 10.5399 12.0002 11.1 12.0002H13.9C14.4601 12.0002 14.7401 12.0002 14.954 12.1092C15.1422 12.2051 15.2951 12.3581 15.391 12.5462C15.5 12.7601 15.5 13.0402 15.5 13.6002V20.2002C15.5 20.4803 15.5 20.6203 15.5545 20.7272C15.6024 20.8213 15.6789 20.8978 15.773 20.9457C15.88 21.0002 16.02 21.0002 16.3 21.0002H18.3C19.4201 21.0002 19.9802 21.0002 20.408 20.7822C20.7843 20.5905 21.0903 20.2845 21.282 19.9082C21.5 19.4804 21.5 18.9203 21.5 17.8002V10.5653C21.5 9.99094 21.5 9.70376 21.426 9.4393C21.3604 9.20503 21.2526 8.98469 21.108 8.7891C20.9447 8.5683 20.718 8.39199 20.2646 8.03937L13.4823 2.76424Z" stroke="#808080" stroke-width="2" stroke-linecap="round" stroke-linejoin="round"/>
</svg>
