<svg width="25" height="24" viewBox="0 0 25 24" fill="none" xmlns="http://www.w3.org/2000/svg">
<path d="M14.1665 11H8.1665M10.1665 15H8.1665M16.1665 7H8.1665M20.1665 6.8V17.2C20.1665 18.8802 20.1665 19.7202 19.8395 20.362C19.5519 20.9265 19.093 21.3854 18.5285 21.673C17.8867 22 17.0467 22 15.3665 22H8.9665C7.28635 22 6.44627 22 5.80453 21.673C5.24005 21.3854 4.7811 20.9265 4.49348 20.362C4.1665 19.7202 4.1665 18.8802 4.1665 17.2V6.8C4.1665 5.11984 4.1665 4.27976 4.49348 3.63803C4.7811 3.07354 5.24005 2.6146 5.80453 2.32698C6.44627 2 7.28635 2 8.9665 2H15.3665C17.0467 2 17.8867 2 18.5285 2.32698C19.093 2.6146 19.5519 3.07354 19.8395 3.63803C20.1665 4.27976 20.1665 5.11984 20.1665 6.8Z" stroke="#808080" stroke-width="2" stroke-linecap="round" stroke-linejoin="round"/>
</svg>
