<svg width="13" height="13" viewBox="0 0 13 13" fill="none" xmlns="http://www.w3.org/2000/svg">
<g clip-path="url(#clip0_487_6182)">
<path d="M6.49988 5.07873V7.07873M6.49988 9.07873H6.50488M5.80754 2.52459L1.69509 9.6279C1.46699 10.0219 1.35294 10.2189 1.3698 10.3806C1.3845 10.5216 1.45838 10.6497 1.57306 10.7331C1.70454 10.8287 1.93217 10.8287 2.38744 10.8287H10.6123C11.0676 10.8287 11.2952 10.8287 11.4267 10.7331C11.5414 10.6497 11.6153 10.5216 11.63 10.3806C11.6468 10.2189 11.5328 10.0219 11.3047 9.6279L7.19222 2.52459C6.96493 2.13201 6.85129 1.93572 6.70303 1.86979C6.5737 1.81228 6.42606 1.81228 6.29673 1.86979C6.14846 1.93572 6.03482 2.13201 5.80754 2.52459Z" stroke="white" stroke-linecap="round" stroke-linejoin="round"/>
</g>
<defs>
<clipPath id="clip0_487_6182">
<rect width="12" height="12" fill="white" transform="translate(0.5 0.578613)"/>
</clipPath>
</defs>
</svg>
