<svg width="13" height="13" viewBox="0 0 13 13" fill="none" xmlns="http://www.w3.org/2000/svg">
<path d="M8 11.0786V8.37861C8 8.09859 8 7.95857 7.9455 7.85162C7.89757 7.75754 7.82108 7.68105 7.727 7.63311C7.62004 7.57861 7.48003 7.57861 7.2 7.57861H5.8C5.51997 7.57861 5.37996 7.57861 5.273 7.63311C5.17892 7.68105 5.10243 7.75754 5.0545 7.85162C5 7.95857 5 8.09859 5 8.37861V11.0786M2 4.07861C2 4.90704 2.67157 5.57861 3.5 5.57861C4.32843 5.57861 5 4.90704 5 4.07861C5 4.90704 5.67157 5.57861 6.5 5.57861C7.32843 5.57861 8 4.90704 8 4.07861C8 4.90704 8.67157 5.57861 9.5 5.57861C10.3284 5.57861 11 4.90704 11 4.07861M3.6 11.0786H9.4C9.96005 11.0786 10.2401 11.0786 10.454 10.9696C10.6422 10.8737 10.7951 10.7208 10.891 10.5326C11 10.3187 11 10.0387 11 9.47861V3.67861C11 3.11856 11 2.83853 10.891 2.62462C10.7951 2.43646 10.6422 2.28348 10.454 2.18761C10.2401 2.07861 9.96005 2.07861 9.4 2.07861H3.6C3.03995 2.07861 2.75992 2.07861 2.54601 2.18761C2.35785 2.28348 2.20487 2.43646 2.10899 2.62462C2 2.83853 2 3.11856 2 3.67861V9.47861C2 10.0387 2 10.3187 2.10899 10.5326C2.20487 10.7208 2.35785 10.8737 2.54601 10.9696C2.75992 11.0786 3.03995 11.0786 3.6 11.0786Z" stroke="white" stroke-linecap="round" stroke-linejoin="round"/>
</svg>
