<svg width="13" height="13" viewBox="0 0 13 13" fill="none" xmlns="http://www.w3.org/2000/svg">
<path d="M10.5 11.0786C10.5 10.3808 10.5 10.0319 10.4139 9.74804C10.22 9.10884 9.71977 8.60863 9.08057 8.41473C8.79667 8.32861 8.44778 8.32861 7.75 8.32861H5.25C4.55222 8.32861 4.20333 8.32861 3.91943 8.41473C3.28023 8.60863 2.78002 9.10884 2.58612 9.74804C2.5 10.0319 2.5 10.3808 2.5 11.0786M8.75 4.32861C8.75 5.57125 7.74264 6.57861 6.5 6.57861C5.25736 6.57861 4.25 5.57125 4.25 4.32861C4.25 3.08597 5.25736 2.07861 6.5 2.07861C7.74264 2.07861 8.75 3.08597 8.75 4.32861Z" stroke="white" stroke-linecap="round" stroke-linejoin="round"/>
</svg>
