<svg width="702" height="251" viewBox="0 0 702 251" fill="none" xmlns="http://www.w3.org/2000/svg">
<mask id="mask0_278_3814" style="mask-type:luminance" maskUnits="userSpaceOnUse" x="30" y="30" width="186" height="191">
<path d="M215.206 30H30V220.497H215.206V30Z" fill="white"/>
</mask>
<g mask="url(#mask0_278_3814)">
<path d="M212.862 99.3565L194.841 50.0834C190.386 37.9034 178.536 29.9997 165.556 30.5635L118.559 32.5633L113.049 32.7974C103.554 33.2016 94.8155 38.1055 89.5297 45.9986L35.5633 126.642C26.4197 140.311 30.0963 158.789 43.7904 167.926L88.7624 197.913L88.0697 113.93C87.9844 104.175 87.9205 95.8461 87.036 86.5064C92.5243 85.4426 106.964 83.698 122.022 83.581C154.185 83.3151 176.458 93.708 176.714 125.195C176.959 155.267 150.38 166.256 138.381 166.554C135.738 166.575 130.644 166.416 128.193 165.214C124.719 163.618 120.594 157.15 120.531 149.832C121.554 149.832 123.792 150.002 125.422 149.991C135.397 149.906 146.746 144.736 146.587 125.025C146.448 107.952 135.599 101.346 123.802 101.441C122.172 101.452 119.326 101.473 117.088 101.899L117.792 187.435C117.888 198.871 119.742 211.508 120.594 218.125C133.234 222.784 147.876 218.401 155.688 206.732L209.665 126.089C214.95 118.196 216.144 108.26 212.883 99.3459L212.862 99.3565ZM174.817 50.8386C170.607 49.2005 169.552 43.8923 172.813 40.7755C174.454 39.2012 176.937 38.7118 179.058 39.5309C183.268 41.1691 184.323 46.4772 181.062 49.594C179.42 51.1684 176.937 51.6577 174.817 50.8386Z" fill="#FF6600" stroke="#FF6600" stroke-miterlimit="10" stroke-linecap="round"/>
</g>
<mask id="mask1_278_3814" style="mask-type:luminance" maskUnits="userSpaceOnUse" x="265" y="81" width="407" height="140">
<path d="M671.071 81.0898H265.206V220.497H671.071V81.0898Z" fill="white"/>
</mask>
<g mask="url(#mask1_278_3814)">
<path d="M265.841 112.059C265.841 104.426 265.841 97.9169 265.206 90.6145C269.492 89.8208 280.763 88.5508 292.511 88.5508C317.593 88.5508 334.91 96.8057 334.91 121.425C334.91 146.044 314.114 153.333 304.747 153.505C302.684 153.505 298.715 153.346 296.81 152.394C294.111 151.124 290.936 146.044 290.936 140.329C291.73 140.329 293.476 140.488 294.746 140.488C302.525 140.488 311.415 136.519 311.415 121.121C311.415 107.786 303.001 102.547 293.794 102.547C292.524 102.547 290.301 102.547 288.555 102.865V169.711C288.555 180.823 288.873 185.268 289.031 188.443C286.174 189.237 274.427 189.713 269.664 189.713C266.966 189.713 265.854 189.237 265.854 186.855V112.059H265.841Z" fill="#FF6600"/>
<path d="M401.121 171.59C401.279 179.369 394.612 186.83 391.754 188.1C389.532 189.052 382.547 190.64 377.467 190.64C353.814 190.64 340.783 178.257 340.783 154.273C340.783 135.541 353.483 116.637 375.245 116.637C397.006 116.637 404.137 131.718 404.137 144.735C404.137 147.116 403.819 148.863 403.502 149.974C403.026 152.196 397.469 154.577 390.484 156.482C386.675 157.594 369.689 157.752 362.545 157.435C363.656 170.452 373.657 174.58 383.023 174.58C390.802 174.58 398.104 172.198 400.803 171.087L401.121 171.563V171.59ZM373.657 129.204C368.577 129.204 362.862 134.125 362.704 145.397C366.831 145.873 377.943 145.714 382.071 145.397C383.023 145.397 383.658 143.809 383.658 142.063C383.658 135.078 380.96 129.204 373.816 129.204H373.657Z" fill="#FF6600"/>
<path d="M413.992 126.03C415.421 121.744 422.088 116.664 427.168 116.664C435.106 116.664 437.963 123.808 438.122 133.333C442.726 122.538 449.234 116.664 458.124 116.664C460.982 116.664 464.156 118.093 465.744 119.363C466.696 121.426 466.379 126.824 464.633 130.158C463.839 134.126 460.347 138.571 457.807 138.889C454.314 137.46 452.409 137.143 449.552 137.143C447.329 137.143 443.043 138.413 440.821 144.604C440.027 146.985 439.709 148.572 439.709 152.065V184.304C439.709 186.844 439.392 188.273 435.741 188.749C429.391 189.542 424.152 189.701 417.167 189.701C417.485 180.018 417.643 170.175 417.643 160.968V133.981C417.643 130.965 416.691 128.266 413.992 126.678V126.043V126.03Z" fill="#FF6600"/>
<path d="M498.314 152.222C504.029 145.237 523.238 121.425 526.095 116.649C529.27 116.491 534.826 117.126 538.636 117.919C542.764 119.031 543.399 121.253 540.382 125.38C533.715 133.953 527.206 141.731 520.221 149.669C523.714 156.336 537.366 177.45 545.304 186.988L545.145 187.623C542.129 189.052 534.826 190.004 529.111 190.004C523.396 190.004 520.539 188.417 516.253 182.225C510.697 174.447 503.712 164.922 498.314 154.286V184.924C498.314 188.099 497.044 188.734 492.917 189.052C488.472 189.528 485.297 189.845 475.772 189.687C476.09 183.178 476.248 173.812 476.248 160.477V101.092C476.248 91.5672 475.931 86.8048 475.613 83.4711C479.741 82.0423 491.171 81.0898 494.981 81.0898C497.679 81.0898 498.314 81.8836 498.314 91.5672V152.222Z" fill="#FF6600"/>
<path d="M553.412 212.878C558.016 208.275 567.699 195.099 573.097 185.098C572.303 183.828 570.398 180.494 569.604 178.113C566.271 169.699 552.142 132.698 546.586 121.426C551.825 118.887 560.714 116.664 565.159 116.664C568.493 116.664 569.446 118.887 570.557 121.744C574.526 132.38 580.717 150.954 584.368 163.032C589.765 148.586 595.798 127.141 597.385 116.664C600.878 116.982 604.846 117.458 609.768 118.569C614.212 119.68 614.689 121.744 613.736 125.871C609.609 143.81 602.783 164.302 593.417 183.51C583.415 203.83 571.986 220.512 568.017 220.512C561.508 220.512 555.317 216.384 553.412 213.685V212.892V212.878Z" fill="#FF6600"/>
<path d="M648.992 116.664C655.5 116.664 661.533 118.093 667.248 122.22C667.565 126.983 665.501 134.126 659.31 133.65C656.135 132.221 652.325 131.269 648.674 131.269C644.388 131.269 641.689 133.333 641.689 136.19C641.689 139.047 643.912 140.476 647.087 142.381C649.785 143.969 656.453 146.985 659.628 148.572C667.883 153.176 671.058 159.367 671.058 166.67C671.058 182.703 656.929 190.641 641.359 190.641C635.802 190.641 629.135 189.212 624.531 186.513C621.991 184.926 620.245 183.179 620.245 180.481C620.245 176.671 622.309 172.385 624.69 170.162C629.294 173.02 636.279 176.036 642.787 176.036C647.708 176.036 650.566 173.972 650.566 170.797C650.566 168.416 649.296 166.67 645.169 164.447C641.2 162.383 637.072 160.32 632.786 158.097C626.595 154.446 621.833 148.096 621.833 139.841C621.833 124.919 634.532 116.664 648.82 116.664H648.978H648.992Z" fill="#FF6600"/>
</g>
</svg>
