<svg width="58" height="20" viewBox="0 0 58 20" fill="none" xmlns="http://www.w3.org/2000/svg">
<mask id="mask0_666_2342" style="mask-type:luminance" maskUnits="userSpaceOnUse" x="0" y="0" width="58" height="20">
<path d="M57.5 0H0.5V19.5784H57.5V0Z" fill="white"/>
</mask>
<g mask="url(#mask0_666_2342)">
<path d="M0.589181 4.34887C0.589181 3.27689 0.58918 2.36275 0.5 1.33719C1.10193 1.22572 2.68484 1.04736 4.33473 1.04736C7.85727 1.04736 10.2893 2.20669 10.2893 5.66424C10.2893 9.12175 7.36868 10.1454 6.05317 10.1696C5.76344 10.1696 5.20603 10.1473 4.93849 10.0136C4.55944 9.83519 4.11354 9.12175 4.11354 8.31913C4.22505 8.31913 4.47026 8.34147 4.64862 8.34147C5.74111 8.34147 6.98963 7.78406 6.98963 5.62155C6.98963 3.74877 5.80796 3.013 4.51492 3.013C4.33656 3.013 4.02436 3.013 3.77915 3.05766V12.4456C3.77915 14.0061 3.82381 14.6304 3.846 15.0763C3.44476 15.1878 1.79501 15.2547 1.12609 15.2547C0.747177 15.2547 0.591007 15.1878 0.591007 14.8533V4.34887H0.589181Z" fill="#242424"/>
<path d="M19.5882 12.7098C19.6104 13.8023 18.674 14.8501 18.2727 15.0285C17.9606 15.1622 16.9796 15.3852 16.2662 15.3852C12.9443 15.3852 11.1143 13.6461 11.1143 10.2778C11.1143 7.64708 12.8979 4.99219 15.9541 4.99219C19.0103 4.99219 20.0117 7.11017 20.0117 8.93829C20.0117 9.27268 19.9671 9.51803 19.9226 9.67406C19.8557 9.98612 19.0753 10.3205 18.0943 10.588C17.5594 10.7442 15.1738 10.7664 14.1705 10.7219C14.3266 12.55 15.7311 13.1297 17.0465 13.1297C18.139 13.1297 19.1645 12.7952 19.5435 12.6392L19.5882 12.706V12.7098ZM15.7311 6.75711C15.0177 6.75711 14.2151 7.44822 14.1929 9.03126C14.7725 9.09811 16.333 9.07578 16.9128 9.03126C17.0465 9.03126 17.1357 8.80824 17.1357 8.56304C17.1357 7.58206 16.7568 6.75711 15.7534 6.75711H15.7311Z" fill="#242424"/>
<path d="M21.3965 6.31195C21.5972 5.71002 22.5335 4.99658 23.2469 4.99658C24.3618 4.99658 24.763 5.99989 24.7853 7.33759C25.4319 5.82153 26.3459 4.99658 27.5944 4.99658C27.9958 4.99658 28.4416 5.19727 28.6646 5.37563C28.7983 5.66536 28.7538 6.42346 28.5085 6.89169C28.397 7.44896 27.9066 8.07322 27.5499 8.11788C27.0593 7.91719 26.7918 7.87267 26.3906 7.87267C26.0784 7.87267 25.4764 8.05103 25.1644 8.9205C25.0529 9.25489 25.0082 9.47777 25.0082 9.96833V14.496C25.0082 14.8527 24.9637 15.0534 24.4509 15.1203C23.5591 15.2316 22.8234 15.254 21.8424 15.254C21.887 13.8941 21.9092 12.5117 21.9092 11.2187V7.4286C21.9092 7.00503 21.7755 6.62598 21.3965 6.40296V6.31378V6.31195Z" fill="#242424"/>
<path d="M33.2379 9.98986C34.0406 9.00888 36.7383 5.66471 37.1395 4.99396C37.5854 4.97177 38.3657 5.06095 38.9008 5.17232C39.4805 5.32849 39.5697 5.64055 39.146 6.22015C38.2097 7.42415 37.2956 8.5165 36.3146 9.63132C36.8051 10.5676 38.7224 13.5329 39.8373 14.8724L39.8149 14.9616C39.3914 15.1623 38.3657 15.296 37.5631 15.296C36.7605 15.296 36.3592 15.0731 35.7573 14.2035C34.977 13.1112 33.996 11.7735 33.2379 10.2797V14.5826C33.2379 15.0285 33.0596 15.1176 32.48 15.1623C31.8557 15.2291 31.4098 15.2737 30.0721 15.2515C30.1168 14.3373 30.139 13.022 30.139 11.1492V2.80913C30.139 1.47146 30.0945 0.802619 30.0498 0.334432C30.6295 0.13377 32.2348 0 32.7699 0C33.1488 0 33.2379 0.111482 33.2379 1.47145V9.98986Z" fill="#242424"/>
<path d="M40.9752 18.509C41.6218 17.8625 42.9817 16.0121 43.7398 14.6075C43.6283 14.4291 43.3608 13.9609 43.2493 13.6265C42.7812 12.4449 40.7969 7.24841 40.0166 5.66536C40.7524 5.30878 42.0007 4.99658 42.625 4.99658C43.0932 4.99658 43.2271 5.30878 43.3831 5.71002C43.9405 7.20375 44.81 9.8123 45.3227 11.5085C46.0807 9.47973 46.928 6.46798 47.1509 4.99658C47.6414 5.04124 48.1987 5.10809 48.8899 5.26412C49.5141 5.42015 49.581 5.71002 49.4472 6.28962C48.8676 8.80899 47.909 11.6869 46.5936 14.3845C45.1889 17.2382 43.5838 19.5811 43.0264 19.5811C42.1123 19.5811 41.2428 19.0013 40.9752 18.6223V18.5109V18.509Z" fill="#242424"/>
<path d="M54.3996 4.99658C55.3135 4.99658 56.1608 5.19727 56.9634 5.77687C57.008 6.44579 56.7181 7.44896 55.8486 7.38211C55.4027 7.18142 54.8676 7.04772 54.3549 7.04772C53.753 7.04772 53.3739 7.33759 53.3739 7.73883C53.3739 8.14007 53.6861 8.34076 54.132 8.6083C54.5109 8.83132 55.4474 9.25489 55.8933 9.47777C57.0526 10.1244 57.4985 10.9938 57.4985 12.0195C57.4985 14.2712 55.5142 15.386 53.3276 15.386C52.5471 15.386 51.6108 15.1853 50.9642 14.8062C50.6075 14.5834 50.3623 14.338 50.3623 13.9591C50.3623 13.424 50.6522 12.8221 50.9866 12.5099C51.6332 12.9113 52.6141 13.3348 53.5281 13.3348C54.2192 13.3348 54.6206 13.045 54.6206 12.5991C54.6206 12.2647 54.4423 12.0195 53.8627 11.7073C53.3052 11.4174 52.7255 11.1277 52.1236 10.8155C51.2541 10.3027 50.5853 9.41092 50.5853 8.25158C50.5853 6.15592 52.3688 4.99658 54.3754 4.99658H54.3976H54.3996Z" fill="#242424"/>
</g>
</svg>
