<svg width="246" height="251" viewBox="0 0 246 251" fill="none" xmlns="http://www.w3.org/2000/svg">
<mask id="mask0_278_3815" style="mask-type:luminance" maskUnits="userSpaceOnUse" x="30" y="30" width="186" height="191">
<path d="M215.206 30H30V220.497H215.206V30Z" fill="white"/>
</mask>
<g mask="url(#mask0_278_3815)">
<path d="M212.862 99.3565L194.841 50.0834C190.386 37.9034 178.536 29.9997 165.556 30.5635L118.559 32.5633L113.049 32.7974C103.554 33.2016 94.8155 38.1055 89.5297 45.9986L35.5633 126.642C26.4197 140.311 30.0963 158.789 43.7904 167.926L88.7624 197.913L88.0697 113.93C87.9844 104.175 87.9205 95.8461 87.036 86.5064C92.5243 85.4426 106.964 83.698 122.022 83.581C154.185 83.3151 176.458 93.708 176.714 125.195C176.959 155.267 150.38 166.256 138.381 166.554C135.738 166.575 130.644 166.416 128.193 165.214C124.719 163.618 120.594 157.15 120.531 149.832C121.554 149.832 123.792 150.002 125.422 149.991C135.397 149.906 146.746 144.736 146.587 125.025C146.448 107.952 135.599 101.346 123.802 101.441C122.172 101.452 119.326 101.473 117.088 101.899L117.792 187.435C117.888 198.871 119.742 211.508 120.594 218.125C133.234 222.784 147.876 218.401 155.688 206.732L209.665 126.089C214.95 118.196 216.144 108.26 212.883 99.3459L212.862 99.3565ZM174.817 50.8386C170.607 49.2005 169.552 43.8923 172.813 40.7755C174.454 39.2012 176.937 38.7118 179.058 39.5309C183.268 41.1691 184.323 46.4772 181.062 49.594C179.42 51.1684 176.937 51.6577 174.817 50.8386Z" fill="#FFFFFF" stroke="#FFFFFF" stroke-miterlimit="10" stroke-linecap="round"/>
</g>
</svg>
